<?xml version="1.0" encoding="UTF-8"?><svg id="Layer_1" xmlns="http://www.w3.org/2000/svg" viewBox="0 0 169.3 115.42"><defs><style>.cls-1{fill:#eded0c;}.cls-2{fill:#fff;}.cls-3{fill:#48abff;}</style></defs><g><path class="cls-2" d="M1.43,0H19.72V6.29H8.34v12.26h8.92v6.29H8.34v19.17H1.43V0Z"/><path class="cls-2" d="M23.05,0h18.86V6.29h-11.94v11.63h9.49v6.29h-9.49v13.51h11.94v6.29H23.05V0Z"/><path class="cls-2" d="M45.86,0h18.86V6.29h-11.94v11.63h9.49v6.29h-9.49v13.51h11.94v6.29h-18.86V0Z"/><path class="cls-2" d="M68.67,0h6.91V37.71h11.38v6.29h-18.29V0Z"/><path class="cls-2" d="M105.75,6.29h-7.23V0h21.37V6.29h-7.23V44h-6.91V6.29Z"/><path class="cls-2" d="M123.22,0h6.91V17.91h7.42V0h6.91V44h-6.91V24.2h-7.42v19.8h-6.91V0Z"/><path class="cls-2" d="M149.62,0h18.86V6.29h-11.94v11.63h9.49v6.29h-9.49v13.51h11.94v6.29h-18.86V0Z"/></g><g><path class="cls-1" d="M.72,51.47H14.4v4.56H5.74v8.44h6.89v4.56H5.74v9.81H14.4v4.56H.72v-31.93Z"/><path class="cls-1" d="M21.79,67.07l-5.52-15.6h5.29l3.38,10.31h.09l3.47-10.31h4.74l-5.52,15.6,5.79,16.33h-5.29l-3.65-11.13h-.09l-3.74,11.13h-4.74l5.79-16.33Z"/><path class="cls-1" d="M34.84,76.01v-17.15c0-4.93,2.55-7.84,7.39-7.84s7.39,2.92,7.39,7.84v3.38h-4.74v-3.69c0-2.1-1-2.96-2.51-2.96s-2.51,.87-2.51,2.96v17.83c0,2.1,1,2.92,2.51,2.92s2.51-.82,2.51-2.92v-4.88h4.74v4.52c0,4.93-2.55,7.84-7.39,7.84s-7.39-2.92-7.39-7.84Z"/><path class="cls-1" d="M52.63,51.47h5.02v31.93h-5.02v-31.93Z"/><path class="cls-1" d="M65.31,56.03h-5.25v-4.56h15.51v4.56h-5.25v27.37h-5.02v-27.37Z"/><path class="cls-1" d="M77.99,51.47h13.68v4.56h-8.67v8.44h6.89v4.56h-6.89v9.81h8.67v4.56h-13.68v-31.93Z"/><path class="cls-1" d="M94.55,51.47h7.16l3.19,22.85h.09l3.19-22.85h7.16v31.93h-4.74v-24.17h-.09l-3.65,24.17h-4.2l-3.65-24.17h-.09v24.17h-4.38v-31.93Z"/><path class="cls-1" d="M119.09,51.47h13.68v4.56h-8.67v8.44h6.89v4.56h-6.89v9.81h8.67v4.56h-13.68v-31.93Z"/><path class="cls-1" d="M135.64,51.47h6.29l4.88,19.11h.09v-19.11h4.47v31.93h-5.15l-6.02-23.31h-.09v23.31h-4.47v-31.93Z"/><path class="cls-1" d="M159.04,56.03h-5.25v-4.56h15.51v4.56h-5.24v27.37h-5.02v-27.37Z"/></g><g><path class="cls-3" d="M0,109.29v-12.8c0-3.9,2.05-6.12,5.81-6.12s5.81,2.23,5.81,6.12v12.8c0,3.9-2.05,6.12-5.81,6.12s-5.81-2.23-5.81-6.12Zm7.79,.24v-13.29c0-1.74-.77-2.4-1.98-2.4s-1.98,.66-1.98,2.4v13.29c0,1.74,.77,2.4,1.98,2.4s1.98-.66,1.98-2.4Z"/><path class="cls-3" d="M14.2,90.72h10.12v3.48h-6.3v6.78h4.94v3.48h-4.94v10.61h-3.83v-24.35Z"/><path class="cls-3" d="M31.49,109.43v-13.08c0-3.76,1.95-5.98,5.64-5.98s5.64,2.23,5.64,5.98v2.57h-3.62v-2.82c0-1.6-.77-2.26-1.91-2.26s-1.91,.66-1.91,2.26v13.6c0,1.6,.77,2.23,1.91,2.23s1.91-.63,1.91-2.23v-3.72h3.62v3.44c0,3.76-1.95,5.98-5.64,5.98s-5.64-2.23-5.64-5.98Z"/><path class="cls-3" d="M44.85,109.29v-12.8c0-3.9,2.05-6.12,5.81-6.12s5.81,2.23,5.81,6.12v12.8c0,3.9-2.05,6.12-5.81,6.12s-5.81-2.23-5.81-6.12Zm7.79,.24v-13.29c0-1.74-.77-2.4-1.98-2.4s-1.98,.66-1.98,2.4v13.29c0,1.74,.77,2.4,1.98,2.4s1.98-.66,1.98-2.4Z"/><path class="cls-3" d="M59.04,90.72h5.46l2.43,17.43h.07l2.44-17.43h5.46v24.35h-3.62v-18.44h-.07l-2.78,18.44h-3.2l-2.78-18.44h-.07v18.44h-3.34v-24.35Z"/><path class="cls-3" d="M77.76,90.72h5.64c3.83,0,5.71,2.12,5.71,6.02v2.4c0,3.9-1.88,6.02-5.71,6.02h-1.81v9.92h-3.83v-24.35Zm5.64,10.96c1.22,0,1.88-.56,1.88-2.3v-2.89c0-1.74-.66-2.3-1.88-2.3h-1.81v7.48h1.81Z"/><path class="cls-3" d="M91.19,90.72h10.44v3.48h-6.61v6.44h5.25v3.48h-5.25v7.48h6.61v3.48h-10.44v-24.35Z"/><path class="cls-3" d="M106.81,94.2h-4v-3.48h11.83v3.48h-4v20.87h-3.83v-20.87Z"/><path class="cls-3" d="M116.48,90.72h3.83v24.35h-3.83v-24.35Z"/><path class="cls-3" d="M126.15,94.2h-4v-3.48h11.83v3.48h-4v20.87h-3.83v-20.87Z"/><path class="cls-3" d="M135.83,90.72h3.83v24.35h-3.83v-24.35Z"/><path class="cls-3" d="M142.23,109.29v-12.8c0-3.9,2.05-6.12,5.81-6.12s5.81,2.23,5.81,6.12v12.8c0,3.9-2.05,6.12-5.81,6.12s-5.81-2.23-5.81-6.12Zm7.79,.24v-13.29c0-1.74-.77-2.4-1.98-2.4s-1.98,.66-1.98,2.4v13.29c0,1.74,.77,2.4,1.98,2.4s1.98-.66,1.98-2.4Z"/><path class="cls-3" d="M156.42,90.72h4.8l3.72,14.58h.07v-14.58h3.41v24.35h-3.93l-4.59-17.78h-.07v17.78h-3.41v-24.35Z"/></g></svg>