<?xml version="1.0" encoding="UTF-8"?><svg id="Layer_1" xmlns="http://www.w3.org/2000/svg" viewBox="0 0 285.82 153.66"><defs><style>.cls-1{fill:#eded0c;}.cls-2{fill:#fff;}.cls-3{fill:#48abff;}</style></defs><g><path class="cls-2" d="M1.88,.68H11.26l7.27,28.46h.14V.68h6.66V48.23h-7.68L8.67,13.52h-.14V48.23H1.88V.68Z"/><path class="cls-2" d="M30.88,.68h20.38V7.47h-12.91v12.57h10.26v6.79h-10.26v14.6h12.91v6.79H30.88V.68Z"/><path class="cls-2" d="M55.54,.68h20.38V7.47h-12.91v12.57h10.26v6.79h-10.26v14.6h12.91v6.79h-20.38V.68Z"/><path class="cls-2" d="M80.2,.68h11.41c7.47,0,11.14,4.14,11.14,11.75v24.05c0,7.61-3.67,11.75-11.14,11.75h-11.41V.68Zm11.28,40.76c2.38,0,3.8-1.22,3.8-4.62V12.09c0-3.4-1.43-4.62-3.8-4.62h-3.8V41.44h3.8Z"/><path class="cls-2" d="M118.1,36.96V11.96c0-7.61,3.8-11.96,11.14-11.96s11.14,4.35,11.14,11.96v4.08h-7.06v-4.55c0-3.4-1.5-4.69-3.87-4.69s-3.87,1.29-3.87,4.69v26.02c0,3.4,1.5,4.62,3.87,4.62s3.87-1.22,3.87-4.62v-9.31h-3.74v-6.79h10.8v15.56c0,7.61-3.8,11.96-11.14,11.96s-11.14-4.35-11.14-11.96Z"/><path class="cls-2" d="M145.2,.68h20.38V7.47h-12.91v12.57h10.26v6.79h-10.26v14.6h12.91v6.79h-20.38V.68Z"/><path class="cls-2" d="M175.63,.68h10.12l7.74,47.55h-7.47l-1.36-9.44v.14h-8.49l-1.36,9.31h-6.93L175.63,.68Zm8.15,31.79l-3.33-23.5h-.14l-3.26,23.5h6.72Z"/><path class="cls-2" d="M197.1,.68h11.07c7.74,0,11.07,3.6,11.07,10.94v2.92c0,4.89-1.56,8.02-4.89,9.37v.14c3.74,1.16,4.96,4.69,4.96,10.05v8.36c0,2.31,.07,4.01,.82,5.77h-7.61c-.41-1.22-.68-1.97-.68-5.84v-8.7c0-4.42-1.29-5.84-4.69-5.84h-2.58v20.38h-7.47V.68Zm10.19,20.38c2.79,0,4.48-1.22,4.48-5.03v-3.67c0-3.4-1.16-4.89-3.8-4.89h-3.4v13.59h2.72Z"/><path class="cls-2" d="M234.79,36.96V11.96c0-7.61,4.01-11.96,11.34-11.96s11.34,4.35,11.34,11.96v25c0,7.61-4.01,11.96-11.34,11.96s-11.34-4.35-11.34-11.96Zm15.22,.48V11.48c0-3.4-1.5-4.69-3.87-4.69s-3.87,1.29-3.87,4.69v25.95c0,3.4,1.5,4.69,3.87,4.69s3.87-1.29,3.87-4.69Z"/><path class="cls-2" d="M262.51,.68h11.07c7.74,0,11.07,3.6,11.07,10.94v2.92c0,4.89-1.56,8.02-4.89,9.37v.14c3.74,1.16,4.96,4.69,4.96,10.05v8.36c0,2.31,.07,4.01,.82,5.77h-7.61c-.41-1.22-.68-1.97-.68-5.84v-8.7c0-4.42-1.29-5.84-4.69-5.84h-2.58v20.38h-7.47V.68Zm10.19,20.38c2.79,0,4.48-1.22,4.48-5.03v-3.67c0-3.4-1.16-4.89-3.8-4.89h-3.4v13.59h2.72Z"/></g><g><path class="cls-3" d="M.5,89.05v-2.55H7.14v3.07c0,3.19,1.41,4.34,3.64,4.34s3.64-1.15,3.64-4.47c0-3.7-1.41-6.07-6-10.09-5.88-5.17-7.79-8.81-7.79-13.92,0-7.03,3.64-11.11,10.48-11.11s10.22,4.09,10.22,11.24v1.85h-6.64v-2.3c0-3.19-1.28-4.41-3.51-4.41s-3.51,1.21-3.51,4.28c0,3.26,1.47,5.62,6.07,9.64,5.88,5.17,7.73,8.75,7.73,14.31,0,7.28-3.7,11.37-10.6,11.37S.5,96.21,.5,89.05Z"/><path class="cls-3" d="M25.22,89.05V54.94h7.03v34.62c0,3.19,1.34,4.34,3.58,4.34s3.58-1.15,3.58-4.34V54.94h6.77v34.11c0,7.15-3.58,11.24-10.48,11.24s-10.48-4.09-10.48-11.24Z"/><path class="cls-3" d="M51.15,54.94h10.35c7.03,0,10.48,3.9,10.48,11.05v4.41c0,7.15-3.45,11.05-10.48,11.05h-3.32v18.2h-7.03V54.94Zm10.35,20.12c2.24,0,3.45-1.02,3.45-4.22v-5.3c0-3.19-1.21-4.22-3.45-4.22h-3.32v13.73h3.32Z"/><path class="cls-3" d="M75.81,54.94h10.35c7.03,0,10.48,3.9,10.48,11.05v4.41c0,7.15-3.45,11.05-10.48,11.05h-3.32v18.2h-7.03V54.94Zm10.35,20.12c2.24,0,3.45-1.02,3.45-4.22v-5.3c0-3.19-1.21-4.22-3.45-4.22h-3.32v13.73h3.32Z"/><path class="cls-3" d="M100.46,54.94h7.03v38.32h11.56v6.39h-18.59V54.94Z"/><path class="cls-3" d="M122.43,54.94h7.03v44.71h-7.03V54.94Z"/><path class="cls-3" d="M134.7,54.94h10.03l4.47,32h.13l4.47-32h10.03v44.71h-6.64v-33.85h-.13l-5.11,33.85h-5.88l-5.11-33.85h-.13v33.85h-6.13V54.94Z"/><path class="cls-3" d="M169.06,54.94h19.16v6.39h-12.14v11.82h9.65v6.39h-9.65v13.73h12.14v6.39h-19.16V54.94Z"/><path class="cls-3" d="M192.24,54.94h8.81l6.83,26.76h.13v-26.76h6.26v44.71h-7.22l-8.43-32.64h-.13v32.64h-6.26V54.94Z"/><path class="cls-3" d="M225.01,61.33h-7.35v-6.39h21.72v6.39h-7.35v38.32h-7.03V61.33Z"/><path class="cls-3" d="M241.56,89.05v-2.55h6.64v3.07c0,3.19,1.4,4.34,3.64,4.34s3.64-1.15,3.64-4.47c0-3.7-1.4-6.07-6-10.09-5.88-5.17-7.79-8.81-7.79-13.92,0-7.03,3.64-11.11,10.47-11.11s10.22,4.09,10.22,11.24v1.85h-6.64v-2.3c0-3.19-1.28-4.41-3.51-4.41s-3.51,1.21-3.51,4.28c0,3.26,1.47,5.62,6.07,9.64,5.88,5.17,7.73,8.75,7.73,14.31,0,7.28-3.7,11.37-10.6,11.37s-10.35-4.09-10.35-11.24Z"/><path class="cls-3" d="M271.38,85.16c0-2.94,.7-5.56,3.45-9.45,3.13-4.47,3.96-7.22,3.96-10.6,0-3.19-1.28-4.41-3.51-4.41s-3.51,1.21-3.51,4.41v4.85h-6.64v-4.41c0-7.15,3.45-11.24,10.28-11.24s10.41,4.09,10.41,11.24c0,3.9-1.21,7.15-4.66,11.75-2.75,3.7-3.64,5.88-3.64,8.11v2.43h-6.13v-2.68Zm-.32,7.73h6.77v6.77h-6.77v-6.77Z"/></g><g><path class="cls-1" d="M0,111.49H6.39l2.95,32.41h.12l3.13-32.41h7.23l3.13,32.41h.12l2.95-32.41h5.72l-4.28,42.17h-8.25l-3.01-28.43h-.12l-3.01,28.43H4.28L0,111.49Z"/><path class="cls-1" d="M35.12,111.49h18.07v6.02h-11.45v11.14h9.1v6.02h-9.1v12.95h11.45v6.02h-18.07v-42.17Z"/><path class="cls-1" d="M66.62,111.49h6.63v17.17h7.11v-17.17h6.63v42.17h-6.63v-18.98h-7.11v18.98h-6.63v-42.17Z"/><path class="cls-1" d="M97.05,111.49h8.98l6.87,42.17h-6.63l-1.21-8.37v.12h-7.53l-1.21,8.25h-6.14l6.87-42.17Zm7.23,28.19l-2.95-20.84h-.12l-2.89,20.84h5.96Z"/><path class="cls-1" d="M112.65,111.49h6.69l4.34,32.71h.12l4.34-32.71h6.08l-6.38,42.17h-8.8l-6.38-42.17Z"/><path class="cls-1" d="M137.4,111.49h18.07v6.02h-11.45v11.14h9.1v6.02h-9.1v12.95h11.45v6.02h-18.07v-42.17Z"/><path class="cls-1" d="M168.91,111.49h6.63v42.17h-6.63v-42.17Z"/><path class="cls-1" d="M185.65,117.51h-6.93v-6.02h20.48v6.02h-6.93v36.15h-6.63v-36.15Z"/><path class="cls-1" d="M217.16,111.49h8.97l6.87,42.17h-6.62l-1.21-8.37v.12h-7.53l-1.21,8.25h-6.14l6.87-42.17Zm7.23,28.19l-2.95-20.84h-.12l-2.89,20.84h5.96Z"/><path class="cls-1" d="M236.19,111.49h6.63v36.14h10.9v6.02h-17.53v-42.17Z"/><path class="cls-1" d="M256.92,111.49h6.63v36.14h10.9v6.02h-17.53v-42.17Z"/><path class="cls-1" d="M278.24,147.27h6.39v6.39h-6.39v-6.39Z"/></g></svg>