<?xml version="1.0" encoding="UTF-8"?><svg id="Layer_1" xmlns="http://www.w3.org/2000/svg" viewBox="0 0 213.9 140.38"><defs><style>.cls-1{fill:#eded0c;}.cls-2{fill:#fff;}.cls-3{fill:#48abff;}</style></defs><g><path class="cls-2" d="M.9,35.99V11.3C.9,4.2,4.58,0,11.54,0s10.64,4.2,10.64,11.3v4.86h-6.83v-5.32c0-3.02-1.44-4.27-3.61-4.27s-3.61,1.25-3.61,4.27v25.68c0,3.02,1.44,4.2,3.61,4.2s3.61-1.18,3.61-4.2v-7.03h6.83v6.5c0,7.09-3.68,11.3-10.64,11.3S.9,43.08,.9,35.99Z"/><path class="cls-2" d="M26.51,.66h7.22V19.37h7.75V.66h7.22V46.63h-7.22V25.94h-7.75v20.69h-7.22V.66Z"/><path class="cls-2" d="M54.09,.66h19.7V7.22h-12.48v12.15h9.92v6.57h-9.92v14.12h12.48v6.57h-19.7V.66Z"/><path class="cls-2" d="M77.47,35.99V11.3c0-7.09,3.68-11.3,10.64-11.3s10.64,4.2,10.64,11.3v4.86h-6.83v-5.32c0-3.02-1.44-4.27-3.61-4.27s-3.61,1.25-3.61,4.27v25.68c0,3.02,1.44,4.2,3.61,4.2s3.61-1.18,3.61-4.2v-7.03h6.83v6.5c0,7.09-3.68,11.3-10.64,11.3s-10.64-4.2-10.64-11.3Z"/><path class="cls-2" d="M103.09,.66h7.22V20.03L119.51,.66h7.22l-8.6,16.88,8.73,29.09h-7.55l-6.11-20.49-2.89,5.85v14.65h-7.22V.66Z"/><path class="cls-2" d="M140.26,35.73V11.56c0-7.36,3.88-11.56,10.97-11.56s10.97,4.2,10.97,11.56v24.17c0,7.36-3.88,11.56-10.97,11.56s-10.97-4.2-10.97-11.56Zm14.71,.46V11.1c0-3.28-1.44-4.53-3.74-4.53s-3.74,1.25-3.74,4.53v25.09c0,3.28,1.44,4.53,3.74,4.53s3.74-1.25,3.74-4.53Z"/><path class="cls-2" d="M166.79,35.73V.66h7.22V36.25c0,3.28,1.38,4.47,3.68,4.47s3.68-1.18,3.68-4.47V.66h6.96V35.73c0,7.36-3.68,11.56-10.77,11.56s-10.77-4.2-10.77-11.56Z"/><path class="cls-2" d="M199.1,7.22h-7.55V.66h22.33V7.22h-7.55V46.63h-7.22V7.22Z"/></g><g><path class="cls-3" d="M0,76.8v-14.87c0-4.53,2.38-7.11,6.75-7.11s6.75,2.59,6.75,7.11v14.87c0,4.53-2.38,7.11-6.75,7.11s-6.75-2.59-6.75-7.11Zm9.05,.28v-15.44c0-2.02-.89-2.79-2.3-2.79s-2.3,.77-2.3,2.79v15.44c0,2.02,.89,2.79,2.3,2.79s2.3-.77,2.3-2.79Z"/><path class="cls-3" d="M16.33,76.8v-21.58h4.45v21.91c0,2.02,.85,2.75,2.26,2.75s2.26-.73,2.26-2.75v-21.91h4.28v21.58c0,4.53-2.26,7.11-6.63,7.11s-6.63-2.59-6.63-7.11Z"/><path class="cls-3" d="M32.74,55.21h6.59c4.61,0,6.59,2.14,6.59,6.51v1.74c0,2.91-.93,4.77-2.91,5.58v.08c2.22,.69,2.95,2.79,2.95,5.98v4.97c0,1.37,.04,2.38,.48,3.44h-4.53c-.24-.73-.4-1.17-.4-3.48v-5.17c0-2.63-.77-3.48-2.79-3.48h-1.54v12.13h-4.45v-28.29Zm6.06,12.13c1.66,0,2.67-.73,2.67-2.99v-2.18c0-2.02-.69-2.91-2.26-2.91h-2.02v8.08h1.62Z"/><path class="cls-3" d="M55.5,55.21h6.35l2.83,20.25h.08l2.83-20.25h6.35v28.29h-4.2v-21.42h-.08l-3.23,21.42h-3.72l-3.23-21.42h-.08v21.42h-3.88v-28.29Z"/><path class="cls-3" d="M77.24,55.21h12.13v4.04h-7.68v7.48h6.1v4.04h-6.1v8.69h7.68v4.04h-12.13v-28.29Z"/><path class="cls-3" d="M91.91,55.21h6.35l2.83,20.25h.08l2.83-20.25h6.35v28.29h-4.2v-21.42h-.08l-3.23,21.42h-3.72l-3.23-21.42h-.08v21.42h-3.88v-28.29Z"/><path class="cls-3" d="M113.66,55.21h6.71c4.61,0,6.59,2.14,6.59,6.51v1.13c0,2.91-.89,4.73-2.87,5.54v.08c2.38,.81,3.31,2.91,3.31,5.9v2.43c0,4.37-2.3,6.71-6.75,6.71h-6.99v-28.29Zm6.18,11.52c1.66,0,2.67-.73,2.67-2.99v-1.58c0-2.02-.69-2.91-2.26-2.91h-2.14v7.48h1.74Zm.81,12.73c1.5,0,2.3-.69,2.3-2.79v-2.47c0-2.63-.85-3.44-2.87-3.44h-1.98v8.69h2.55Z"/><path class="cls-3" d="M129.99,55.21h12.13v4.04h-7.68v7.48h6.1v4.04h-6.1v8.69h7.68v4.04h-12.13v-28.29Z"/><path class="cls-3" d="M144.66,55.21h6.59c4.61,0,6.59,2.14,6.59,6.51v1.74c0,2.91-.93,4.77-2.91,5.58v.08c2.22,.69,2.95,2.79,2.95,5.98v4.97c0,1.37,.04,2.38,.48,3.44h-4.53c-.24-.73-.4-1.17-.4-3.48v-5.17c0-2.63-.77-3.48-2.79-3.48h-1.54v12.13h-4.45v-28.29Zm6.06,12.13c1.66,0,2.67-.73,2.67-2.99v-2.18c0-2.02-.69-2.91-2.26-2.91h-2.02v8.08h1.62Z"/><path class="cls-3" d="M160.18,76.8v-1.62h4.2v1.94c0,2.02,.89,2.75,2.3,2.75s2.3-.73,2.3-2.83c0-2.34-.89-3.84-3.8-6.39-3.72-3.27-4.93-5.58-4.93-8.81,0-4.45,2.3-7.03,6.63-7.03s6.47,2.59,6.47,7.11v1.17h-4.2v-1.46c0-2.02-.81-2.79-2.22-2.79s-2.22,.77-2.22,2.71c0,2.06,.93,3.56,3.84,6.1,3.72,3.27,4.89,5.54,4.89,9.05,0,4.61-2.34,7.19-6.71,7.19s-6.55-2.59-6.55-7.11Z"/><path class="cls-3" d="M175.99,55.21h4.45v11.52h4.77v-11.52h4.45v28.29h-4.45v-12.73h-4.77v12.73h-4.45v-28.29Z"/><path class="cls-3" d="M192.96,55.21h4.45v28.29h-4.45v-28.29Z"/><path class="cls-3" d="M200.72,55.21h6.55c4.45,0,6.63,2.47,6.63,6.99v2.79c0,4.53-2.18,6.99-6.63,6.99h-2.1v11.52h-4.45v-28.29Zm6.55,12.73c1.42,0,2.18-.65,2.18-2.67v-3.35c0-2.02-.77-2.67-2.18-2.67h-2.1v8.69h2.1Z"/></g><g><path class="cls-1" d="M1.55,90.49H12.93c7.73,0,11.52,4.29,11.52,12.16v4.85c0,7.87-3.79,12.16-11.52,12.16h-3.65v20.03H1.55v-49.19Zm11.38,22.13c2.46,0,3.79-1.12,3.79-4.64v-5.83c0-3.51-1.33-4.64-3.79-4.64h-3.65v15.11h3.65Z"/><path class="cls-1" d="M32.18,90.49h10.47l8.01,49.19h-7.73l-1.41-9.77v.14h-8.78l-1.41,9.63h-7.17l8.01-49.19Zm8.43,32.88l-3.44-24.31h-.14l-3.37,24.31h6.96Z"/><path class="cls-1" d="M53.76,128.29v-26.42c0-7.59,3.94-12.09,11.38-12.09s11.38,4.5,11.38,12.09v5.2h-7.31v-5.69c0-3.23-1.55-4.57-3.86-4.57s-3.86,1.33-3.86,4.57v27.47c0,3.23,1.55,4.5,3.86,4.5s3.86-1.26,3.86-4.5v-7.52h7.31v6.96c0,7.59-3.93,12.09-11.38,12.09s-11.38-4.5-11.38-12.09Z"/><path class="cls-1" d="M81.16,90.49h7.73v20.73l9.84-20.73h7.73l-9.2,18.06,9.35,31.13h-8.08l-6.53-21.92-3.09,6.25v15.67h-7.73v-49.19Z"/><path class="cls-1" d="M116.22,90.49h10.47l8.01,49.19h-7.73l-1.41-9.77v.14h-8.78l-1.41,9.63h-7.17l8.01-49.19Zm8.43,32.88l-3.44-24.31h-.14l-3.37,24.31h6.96Z"/><path class="cls-1" d="M137.72,128.01v-25.86c0-7.87,3.94-12.37,11.52-12.37s11.52,4.5,11.52,12.37v4.22h-7.31v-4.71c0-3.51-1.55-4.85-4.01-4.85s-4,1.33-4,4.85v26.91c0,3.51,1.55,4.78,4,4.78s4.01-1.26,4.01-4.78v-9.63h-3.86v-7.03h11.17v16.09c0,7.87-3.94,12.37-11.52,12.37s-11.52-4.5-11.52-12.37Z"/><path class="cls-1" d="M165.76,90.49h21.08v7.03h-13.35v13h10.61v7.03h-10.61v15.11h13.35v7.03h-21.08v-49.19Z"/><path class="cls-1" d="M190.07,128.01v-2.81h7.31v3.37c0,3.51,1.55,4.78,4,4.78s4.01-1.26,4.01-4.92c0-4.08-1.55-6.68-6.61-11.1-6.46-5.69-8.57-9.7-8.57-15.32,0-7.73,4-12.23,11.52-12.23s11.24,4.5,11.24,12.37v2.04h-7.31v-2.53c0-3.51-1.41-4.85-3.87-4.85s-3.86,1.33-3.86,4.71c0,3.58,1.62,6.18,6.67,10.61,6.46,5.69,8.5,9.63,8.5,15.74,0,8.01-4.08,12.51-11.67,12.51s-11.38-4.5-11.38-12.37Z"/></g></svg>